<mxfile host="drawio-plugin" modified="2024-08-18T10:32:52.922Z" agent="Mozilla/5.0 (Macintosh; Intel Mac OS X 10_15_7) AppleWebKit/537.36 (KHTML, like Gecko) Chrome/122.0.0.0 Safari/537.36" etag="MXS-faE11753N_PenaS3" version="22.1.22" type="embed">
  <diagram name="Page-1" id="3PQ_4ur0X1hxQwYhurW_">
    <mxGraphModel dx="1551" dy="703" grid="1" gridSize="10" guides="1" tooltips="1" connect="1" arrows="1" fold="1" page="1" pageScale="1" pageWidth="827" pageHeight="1169" math="0" shadow="0">
      <root>
        <mxCell id="0" />
        <mxCell id="1" parent="0" />
        <mxCell id="-33F_JC6JZHggcXCFQ7N-1" value="" style="rhombus;whiteSpace=wrap;html=1;fillColor=#f8cecc;strokeColor=#b85450;gradientColor=#ea6b66;sketch=1;curveFitting=1;jiggle=2;" parent="1" vertex="1">
          <mxGeometry x="1710" y="725" width="120" height="28" as="geometry" />
        </mxCell>
        <mxCell id="-33F_JC6JZHggcXCFQ7N-2" value="" style="rhombus;whiteSpace=wrap;html=1;fillColor=#f8cecc;strokeColor=#b85450;gradientColor=#ea6b66;sketch=1;curveFitting=1;jiggle=2;" parent="1" vertex="1">
          <mxGeometry x="1710" y="714" width="120" height="28" as="geometry" />
        </mxCell>
        <mxCell id="-33F_JC6JZHggcXCFQ7N-3" value="" style="rounded=1;whiteSpace=wrap;html=1;sketch=1;curveFitting=1;jiggle=2;" parent="1" vertex="1">
          <mxGeometry x="922.5" y="454" width="100" height="260" as="geometry" />
        </mxCell>
        <mxCell id="-33F_JC6JZHggcXCFQ7N-4" value="1.&amp;nbsp;&lt;span style=&quot;background-color: initial;&quot;&gt;Нотификации могут отправляться на миллион человек&lt;/span&gt;" style="text;html=1;align=left;verticalAlign=top;whiteSpace=wrap;rounded=1;sketch=1;curveFitting=1;jiggle=2;" parent="1" vertex="1">
          <mxGeometry x="310" y="484" width="280" height="50" as="geometry" />
        </mxCell>
        <mxCell id="-33F_JC6JZHggcXCFQ7N-5" value="2.&amp;nbsp;&lt;span style=&quot;background-color: initial;&quot;&gt;Сервер может упасть в процессе отправки нотификации&lt;/span&gt;" style="text;html=1;align=left;verticalAlign=top;whiteSpace=wrap;rounded=1;sketch=1;curveFitting=1;jiggle=2;" parent="1" vertex="1">
          <mxGeometry x="310" y="534" width="280" height="50" as="geometry" />
        </mxCell>
        <mxCell id="-33F_JC6JZHggcXCFQ7N-6" value="3.&amp;nbsp;&lt;span style=&quot;background-color: initial;&quot;&gt;ВСЕ пользователи обязаны получить сообщение&lt;/span&gt;" style="text;html=1;align=left;verticalAlign=top;whiteSpace=wrap;rounded=1;sketch=1;curveFitting=1;jiggle=2;" parent="1" vertex="1">
          <mxGeometry x="310" y="585" width="280" height="40" as="geometry" />
        </mxCell>
        <mxCell id="-33F_JC6JZHggcXCFQ7N-7" value="Secret Requirements" style="text;html=1;align=left;verticalAlign=middle;whiteSpace=wrap;rounded=1;sketch=1;curveFitting=1;jiggle=2;" parent="1" vertex="1">
          <mxGeometry x="310" y="454" width="140" height="30" as="geometry" />
        </mxCell>
        <mxCell id="-33F_JC6JZHggcXCFQ7N-8" value="" style="group;rounded=1;sketch=1;curveFitting=1;jiggle=2;" parent="1" vertex="1" connectable="0">
          <mxGeometry x="930" y="477" width="85" height="215" as="geometry" />
        </mxCell>
        <mxCell id="-33F_JC6JZHggcXCFQ7N-9" style="rounded=1;orthogonalLoop=1;jettySize=auto;html=1;exitX=1;exitY=0;exitDx=0;exitDy=0;entryX=0;entryY=1;entryDx=0;entryDy=0;strokeColor=#666666;sketch=1;curveFitting=1;jiggle=2;" parent="-33F_JC6JZHggcXCFQ7N-8" source="-33F_JC6JZHggcXCFQ7N-12" target="-33F_JC6JZHggcXCFQ7N-13" edge="1">
          <mxGeometry relative="1" as="geometry" />
        </mxCell>
        <mxCell id="-33F_JC6JZHggcXCFQ7N-10" style="edgeStyle=orthogonalEdgeStyle;rounded=1;orthogonalLoop=1;jettySize=auto;html=1;exitX=1;exitY=0.5;exitDx=0;exitDy=0;entryX=0;entryY=0.5;entryDx=0;entryDy=0;strokeColor=#666666;sketch=1;curveFitting=1;jiggle=2;" parent="-33F_JC6JZHggcXCFQ7N-8" source="-33F_JC6JZHggcXCFQ7N-12" target="-33F_JC6JZHggcXCFQ7N-14" edge="1">
          <mxGeometry relative="1" as="geometry" />
        </mxCell>
        <mxCell id="-33F_JC6JZHggcXCFQ7N-11" style="rounded=1;orthogonalLoop=1;jettySize=auto;html=1;exitX=1;exitY=1;exitDx=0;exitDy=0;entryX=0;entryY=0;entryDx=0;entryDy=0;strokeColor=#666666;sketch=1;curveFitting=1;jiggle=2;" parent="-33F_JC6JZHggcXCFQ7N-8" source="-33F_JC6JZHggcXCFQ7N-12" target="-33F_JC6JZHggcXCFQ7N-15" edge="1">
          <mxGeometry relative="1" as="geometry" />
        </mxCell>
        <mxCell id="-33F_JC6JZHggcXCFQ7N-12" value="" style="ellipse;whiteSpace=wrap;html=1;aspect=fixed;fillColor=#CCCCCC;rounded=1;sketch=1;curveFitting=1;jiggle=2;" parent="-33F_JC6JZHggcXCFQ7N-8" vertex="1">
          <mxGeometry y="55" width="20" height="20" as="geometry" />
        </mxCell>
        <mxCell id="-33F_JC6JZHggcXCFQ7N-13" value="" style="ellipse;whiteSpace=wrap;html=1;aspect=fixed;fillColor=#CCCCCC;rounded=1;sketch=1;curveFitting=1;jiggle=2;" parent="-33F_JC6JZHggcXCFQ7N-8" vertex="1">
          <mxGeometry x="50" width="20" height="20" as="geometry" />
        </mxCell>
        <mxCell id="-33F_JC6JZHggcXCFQ7N-14" value="" style="ellipse;whiteSpace=wrap;html=1;aspect=fixed;fillColor=#CCCCCC;rounded=1;sketch=1;curveFitting=1;jiggle=2;" parent="-33F_JC6JZHggcXCFQ7N-8" vertex="1">
          <mxGeometry x="50" y="55" width="20" height="20" as="geometry" />
        </mxCell>
        <mxCell id="-33F_JC6JZHggcXCFQ7N-15" value="" style="ellipse;whiteSpace=wrap;html=1;aspect=fixed;fillColor=#CCCCCC;rounded=1;sketch=1;curveFitting=1;jiggle=2;" parent="-33F_JC6JZHggcXCFQ7N-8" vertex="1">
          <mxGeometry x="50" y="105" width="20" height="20" as="geometry" />
        </mxCell>
        <mxCell id="-33F_JC6JZHggcXCFQ7N-16" value="&lt;font face=&quot;Comic Sans MS&quot;&gt;Load Balancer&lt;/font&gt;" style="text;html=1;align=center;verticalAlign=middle;whiteSpace=wrap;rounded=1;sketch=1;curveFitting=1;jiggle=2;" parent="1" vertex="1">
          <mxGeometry x="942.5" y="662" width="60" height="30" as="geometry" />
        </mxCell>
        <mxCell id="-33F_JC6JZHggcXCFQ7N-17" value="" style="group;fontFamily=Comic Sans MS;rounded=1;sketch=1;curveFitting=1;jiggle=2;" parent="1" vertex="1" connectable="0">
          <mxGeometry x="1180" y="510" width="140" height="80" as="geometry" />
        </mxCell>
        <mxCell id="-33F_JC6JZHggcXCFQ7N-18" value="" style="rounded=1;whiteSpace=wrap;html=1;sketch=1;curveFitting=1;jiggle=2;" parent="-33F_JC6JZHggcXCFQ7N-17" vertex="1">
          <mxGeometry width="120" height="60" as="geometry" />
        </mxCell>
        <mxCell id="-33F_JC6JZHggcXCFQ7N-19" value="" style="rounded=1;whiteSpace=wrap;html=1;sketch=1;curveFitting=1;jiggle=2;" parent="-33F_JC6JZHggcXCFQ7N-17" vertex="1">
          <mxGeometry x="10" y="10" width="120" height="60" as="geometry" />
        </mxCell>
        <mxCell id="-33F_JC6JZHggcXCFQ7N-20" value="&lt;font face=&quot;Comic Sans MS&quot;&gt;API Services&lt;/font&gt;" style="rounded=1;whiteSpace=wrap;html=1;sketch=1;curveFitting=1;jiggle=2;" parent="-33F_JC6JZHggcXCFQ7N-17" vertex="1">
          <mxGeometry x="20" y="20" width="120" height="60" as="geometry" />
        </mxCell>
        <mxCell id="-33F_JC6JZHggcXCFQ7N-21" value="&lt;font style=&quot;font-size: 16px;&quot;&gt;Kafka&lt;/font&gt;" style="text;html=1;align=center;verticalAlign=middle;whiteSpace=wrap;rounded=1;fontFamily=Comic Sans MS;fontStyle=1;fontSize=16;sketch=1;curveFitting=1;jiggle=2;" parent="1" vertex="1">
          <mxGeometry x="1530" y="585" width="110" height="30" as="geometry" />
        </mxCell>
        <mxCell id="-33F_JC6JZHggcXCFQ7N-22" value="" style="group;sketch=1;curveFitting=1;jiggle=2;" parent="1" vertex="1" connectable="0">
          <mxGeometry x="1460" y="525" width="250" height="60" as="geometry" />
        </mxCell>
        <mxCell id="-33F_JC6JZHggcXCFQ7N-23" value="" style="html=1;shadow=0;dashed=0;align=center;verticalAlign=middle;shape=mxgraph.arrows2.arrow;dy=0;dx=10;notch=0;rounded=1;sketch=1;curveFitting=1;jiggle=2;" parent="-33F_JC6JZHggcXCFQ7N-22" vertex="1">
          <mxGeometry width="250" height="60" as="geometry" />
        </mxCell>
        <mxCell id="-33F_JC6JZHggcXCFQ7N-24" value="" style="shape=message;html=1;html=1;outlineConnect=0;labelPosition=center;verticalLabelPosition=bottom;align=center;verticalAlign=top;rounded=1;sketch=1;curveFitting=1;jiggle=2;" parent="-33F_JC6JZHggcXCFQ7N-22" vertex="1">
          <mxGeometry x="10" y="15" width="50" height="30" as="geometry" />
        </mxCell>
        <mxCell id="-33F_JC6JZHggcXCFQ7N-25" value="" style="shape=message;html=1;html=1;outlineConnect=0;labelPosition=center;verticalLabelPosition=bottom;align=center;verticalAlign=top;rounded=1;sketch=1;curveFitting=1;jiggle=2;" parent="-33F_JC6JZHggcXCFQ7N-22" vertex="1">
          <mxGeometry x="70" y="15" width="50" height="30" as="geometry" />
        </mxCell>
        <mxCell id="-33F_JC6JZHggcXCFQ7N-26" value="" style="shape=message;html=1;html=1;outlineConnect=0;labelPosition=center;verticalLabelPosition=bottom;align=center;verticalAlign=top;rounded=1;sketch=1;curveFitting=1;jiggle=2;" parent="-33F_JC6JZHggcXCFQ7N-22" vertex="1">
          <mxGeometry x="170" y="15" width="50" height="30" as="geometry" />
        </mxCell>
        <mxCell id="-33F_JC6JZHggcXCFQ7N-27" value="" style="endArrow=none;dashed=1;html=1;dashPattern=1 3;strokeWidth=2;rounded=1;exitX=1;exitY=0.5;exitDx=0;exitDy=0;entryX=0;entryY=0.5;entryDx=0;entryDy=0;sketch=1;curveFitting=1;jiggle=2;" parent="-33F_JC6JZHggcXCFQ7N-22" source="-33F_JC6JZHggcXCFQ7N-25" target="-33F_JC6JZHggcXCFQ7N-26" edge="1">
          <mxGeometry width="50" height="50" relative="1" as="geometry">
            <mxPoint x="-20" y="180" as="sourcePoint" />
            <mxPoint x="30" y="130" as="targetPoint" />
          </mxGeometry>
        </mxCell>
        <mxCell id="-33F_JC6JZHggcXCFQ7N-28" value="" style="group;fontFamily=Comic Sans MS;rounded=1;sketch=1;curveFitting=1;jiggle=2;" parent="1" vertex="1" connectable="0">
          <mxGeometry x="1340" y="662" width="140" height="50" as="geometry" />
        </mxCell>
        <mxCell id="-33F_JC6JZHggcXCFQ7N-29" value="" style="rounded=1;whiteSpace=wrap;html=1;sketch=1;curveFitting=1;jiggle=2;" parent="-33F_JC6JZHggcXCFQ7N-28" vertex="1">
          <mxGeometry width="120" height="37.5" as="geometry" />
        </mxCell>
        <mxCell id="-33F_JC6JZHggcXCFQ7N-30" value="" style="rounded=1;whiteSpace=wrap;html=1;sketch=1;curveFitting=1;jiggle=2;" parent="-33F_JC6JZHggcXCFQ7N-28" vertex="1">
          <mxGeometry x="10" y="6.25" width="120" height="37.5" as="geometry" />
        </mxCell>
        <mxCell id="-33F_JC6JZHggcXCFQ7N-31" value="&lt;font face=&quot;Comic Sans MS&quot;&gt;Rebalancer&lt;/font&gt;" style="rounded=1;whiteSpace=wrap;html=1;sketch=1;curveFitting=1;jiggle=2;" parent="-33F_JC6JZHggcXCFQ7N-28" vertex="1">
          <mxGeometry x="20" y="12.5" width="120" height="37.5" as="geometry" />
        </mxCell>
        <mxCell id="-33F_JC6JZHggcXCFQ7N-32" value="" style="group;fontFamily=Comic Sans MS;rounded=1;sketch=1;curveFitting=1;jiggle=2;" parent="1" vertex="1" connectable="0">
          <mxGeometry x="1820" y="510" width="140" height="80" as="geometry" />
        </mxCell>
        <mxCell id="-33F_JC6JZHggcXCFQ7N-33" value="" style="rounded=1;whiteSpace=wrap;html=1;sketch=1;curveFitting=1;jiggle=2;" parent="-33F_JC6JZHggcXCFQ7N-32" vertex="1">
          <mxGeometry width="120" height="60" as="geometry" />
        </mxCell>
        <mxCell id="-33F_JC6JZHggcXCFQ7N-34" value="" style="rounded=1;whiteSpace=wrap;html=1;sketch=1;curveFitting=1;jiggle=2;" parent="-33F_JC6JZHggcXCFQ7N-32" vertex="1">
          <mxGeometry x="10" y="10" width="120" height="60" as="geometry" />
        </mxCell>
        <mxCell id="-33F_JC6JZHggcXCFQ7N-35" value="&lt;font face=&quot;Comic Sans MS&quot;&gt;Worker&lt;/font&gt;" style="rounded=1;whiteSpace=wrap;html=1;sketch=1;curveFitting=1;jiggle=2;" parent="-33F_JC6JZHggcXCFQ7N-32" vertex="1">
          <mxGeometry x="20" y="20" width="120" height="60" as="geometry" />
        </mxCell>
        <mxCell id="-33F_JC6JZHggcXCFQ7N-36" value="" style="group;sketch=1;curveFitting=1;jiggle=2;" parent="1" vertex="1" connectable="0">
          <mxGeometry x="1350" y="790" width="60" height="90" as="geometry" />
        </mxCell>
        <mxCell id="-33F_JC6JZHggcXCFQ7N-37" value="" style="strokeWidth=2;html=1;shape=mxgraph.flowchart.database;whiteSpace=wrap;rounded=1;sketch=1;curveFitting=1;jiggle=2;" parent="-33F_JC6JZHggcXCFQ7N-36" vertex="1">
          <mxGeometry width="60" height="60" as="geometry" />
        </mxCell>
        <mxCell id="-33F_JC6JZHggcXCFQ7N-38" value="PostgreSQL" style="text;html=1;align=center;verticalAlign=middle;whiteSpace=wrap;rounded=1;fontFamily=Comic Sans MS;sketch=1;curveFitting=1;jiggle=2;" parent="-33F_JC6JZHggcXCFQ7N-36" vertex="1">
          <mxGeometry y="60" width="60" height="30" as="geometry" />
        </mxCell>
        <mxCell id="-33F_JC6JZHggcXCFQ7N-39" value="" style="endArrow=classic;html=1;rounded=0;curved=1;sketch=1;curveFitting=1;jiggle=2;" parent="1" edge="1">
          <mxGeometry width="50" height="50" relative="1" as="geometry">
            <mxPoint x="1390" y="650" as="sourcePoint" />
            <mxPoint x="1450" y="570" as="targetPoint" />
            <Array as="points">
              <mxPoint x="1390" y="600" />
            </Array>
          </mxGeometry>
        </mxCell>
        <mxCell id="-33F_JC6JZHggcXCFQ7N-40" value="" style="endArrow=classic;html=1;rounded=0;curved=1;sketch=1;curveFitting=1;jiggle=2;" parent="1" edge="1">
          <mxGeometry width="50" height="50" relative="1" as="geometry">
            <mxPoint x="1420" y="720" as="sourcePoint" />
            <mxPoint x="1400" y="780" as="targetPoint" />
            <Array as="points">
              <mxPoint x="1440" y="760" />
            </Array>
          </mxGeometry>
        </mxCell>
        <mxCell id="-33F_JC6JZHggcXCFQ7N-41" value="" style="endArrow=classic;html=1;rounded=0;curved=1;sketch=1;curveFitting=1;jiggle=2;" parent="1" edge="1">
          <mxGeometry width="50" height="50" relative="1" as="geometry">
            <mxPoint x="1240" y="600" as="sourcePoint" />
            <mxPoint x="1350" y="780" as="targetPoint" />
            <Array as="points">
              <mxPoint x="1240" y="720" />
            </Array>
          </mxGeometry>
        </mxCell>
        <mxCell id="-33F_JC6JZHggcXCFQ7N-42" value="" style="rhombus;whiteSpace=wrap;html=1;fillColor=#f8cecc;strokeColor=#b85450;gradientColor=#ea6b66;sketch=1;curveFitting=1;jiggle=2;" parent="1" vertex="1">
          <mxGeometry x="1710" y="702" width="120" height="28" as="geometry" />
        </mxCell>
        <mxCell id="-33F_JC6JZHggcXCFQ7N-43" value="" style="rhombus;whiteSpace=wrap;html=1;fillColor=#f8cecc;strokeColor=#b85450;gradientColor=#ea6b66;sketch=1;curveFitting=1;jiggle=2;" parent="1" vertex="1">
          <mxGeometry x="1710" y="692" width="120" height="28" as="geometry" />
        </mxCell>
        <mxCell id="-33F_JC6JZHggcXCFQ7N-44" value="&lt;font style=&quot;font-size: 16px;&quot;&gt;Cache&lt;/font&gt;" style="text;html=1;align=center;verticalAlign=middle;whiteSpace=wrap;rounded=1;fontFamily=Comic Sans MS;fontStyle=1;fontSize=16;sketch=1;curveFitting=1;jiggle=2;" parent="1" vertex="1">
          <mxGeometry x="1715" y="753" width="110" height="30" as="geometry" />
        </mxCell>
        <mxCell id="-33F_JC6JZHggcXCFQ7N-45" value="" style="endArrow=classic;html=1;rounded=0;curved=1;sketch=1;curveFitting=1;jiggle=2;" parent="1" edge="1">
          <mxGeometry width="50" height="50" relative="1" as="geometry">
            <mxPoint x="1890" y="602" as="sourcePoint" />
            <mxPoint x="1830" y="690" as="targetPoint" />
            <Array as="points">
              <mxPoint x="1900" y="660" />
            </Array>
          </mxGeometry>
        </mxCell>
        <mxCell id="-33F_JC6JZHggcXCFQ7N-46" value="" style="rounded=1;whiteSpace=wrap;html=1;sketch=1;curveFitting=1;jiggle=2;" parent="1" vertex="1">
          <mxGeometry x="2068" y="472" width="160" height="190" as="geometry" />
        </mxCell>
        <mxCell id="-33F_JC6JZHggcXCFQ7N-47" value="Third party services" style="text;html=1;align=center;verticalAlign=middle;whiteSpace=wrap;rounded=1;fontFamily=Comic Sans MS;sketch=1;curveFitting=1;jiggle=2;" parent="1" vertex="1">
          <mxGeometry x="2088" y="662" width="120" height="30" as="geometry" />
        </mxCell>
        <mxCell id="-33F_JC6JZHggcXCFQ7N-48" value="Amazon SES" style="rounded=1;whiteSpace=wrap;html=1;fontFamily=Comic Sans MS;sketch=1;curveFitting=1;jiggle=2;" parent="1" vertex="1">
          <mxGeometry x="2098" y="482" width="100" height="20" as="geometry" />
        </mxCell>
        <mxCell id="-33F_JC6JZHggcXCFQ7N-49" value="Twilo" style="rounded=1;whiteSpace=wrap;html=1;fontFamily=Comic Sans MS;sketch=1;curveFitting=1;jiggle=2;" parent="1" vertex="1">
          <mxGeometry x="2098" y="512" width="100" height="20" as="geometry" />
        </mxCell>
        <mxCell id="-33F_JC6JZHggcXCFQ7N-50" value="Apple push" style="rounded=1;whiteSpace=wrap;html=1;fontFamily=Comic Sans MS;sketch=1;curveFitting=1;jiggle=2;" parent="1" vertex="1">
          <mxGeometry x="2098" y="542" width="100" height="20" as="geometry" />
        </mxCell>
        <mxCell id="-33F_JC6JZHggcXCFQ7N-51" value="" style="endArrow=none;dashed=1;html=1;rounded=1;fontSize=11;spacing=2;spacingTop=0;strokeWidth=2;sketch=1;curveFitting=1;jiggle=2;" parent="1" edge="1">
          <mxGeometry width="50" height="50" relative="1" as="geometry">
            <mxPoint x="2168" y="582" as="sourcePoint" />
            <mxPoint x="2128.0011111111107" y="582" as="targetPoint" />
          </mxGeometry>
        </mxCell>
        <mxCell id="-33F_JC6JZHggcXCFQ7N-52" value="" style="endArrow=classic;html=1;rounded=0;curved=1;sketch=1;curveFitting=1;jiggle=2;" parent="1" edge="1">
          <mxGeometry width="50" height="50" relative="1" as="geometry">
            <mxPoint x="1970" y="549.41" as="sourcePoint" />
            <mxPoint x="2060" y="549.89" as="targetPoint" />
            <Array as="points">
              <mxPoint x="2010" y="520" />
            </Array>
          </mxGeometry>
        </mxCell>
        <mxCell id="-33F_JC6JZHggcXCFQ7N-53" value="" style="endArrow=classic;html=1;rounded=0;curved=1;sketch=1;curveFitting=1;jiggle=2;" parent="1" edge="1">
          <mxGeometry width="50" height="50" relative="1" as="geometry">
            <mxPoint x="1715" y="549.41" as="sourcePoint" />
            <mxPoint x="1805" y="549.89" as="targetPoint" />
            <Array as="points">
              <mxPoint x="1755" y="520" />
            </Array>
          </mxGeometry>
        </mxCell>
        <mxCell id="-33F_JC6JZHggcXCFQ7N-54" value="" style="endArrow=classic;html=1;rounded=0;curved=1;sketch=1;curveFitting=1;jiggle=2;" parent="1" edge="1">
          <mxGeometry width="50" height="50" relative="1" as="geometry">
            <mxPoint x="1330" y="539.94" as="sourcePoint" />
            <mxPoint x="1450" y="540" as="targetPoint" />
            <Array as="points">
              <mxPoint x="1380" y="510" />
            </Array>
          </mxGeometry>
        </mxCell>
        <mxCell id="-33F_JC6JZHggcXCFQ7N-55" value="" style="endArrow=classic;html=1;rounded=0;curved=1;sketch=1;curveFitting=1;jiggle=2;" parent="1" edge="1">
          <mxGeometry width="50" height="50" relative="1" as="geometry">
            <mxPoint x="1030" y="542" as="sourcePoint" />
            <mxPoint x="1170" y="540" as="targetPoint" />
            <Array as="points">
              <mxPoint x="1090" y="512" />
            </Array>
          </mxGeometry>
        </mxCell>
        <mxCell id="-33F_JC6JZHggcXCFQ7N-56" value="" style="endArrow=classic;html=1;rounded=0;curved=1;sketch=1;curveFitting=1;jiggle=2;" parent="1" edge="1">
          <mxGeometry width="50" height="50" relative="1" as="geometry">
            <mxPoint x="778" y="540" as="sourcePoint" />
            <mxPoint x="918" y="538" as="targetPoint" />
            <Array as="points">
              <mxPoint x="838" y="510" />
            </Array>
          </mxGeometry>
        </mxCell>
        <mxCell id="-33F_JC6JZHggcXCFQ7N-57" value="" style="group" parent="1" vertex="1" connectable="0">
          <mxGeometry x="710" y="490" width="60" height="110" as="geometry" />
        </mxCell>
        <mxCell id="-33F_JC6JZHggcXCFQ7N-58" value="" style="shape=actor;whiteSpace=wrap;html=1;sketch=1;hachureGap=4;jiggle=2;curveFitting=1;fontFamily=Architects Daughter;fontSource=https%3A%2F%2Ffonts.googleapis.com%2Fcss%3Ffamily%3DArchitects%2BDaughter;" parent="-33F_JC6JZHggcXCFQ7N-57" vertex="1">
          <mxGeometry x="3.330000000000041" width="53.33" height="80" as="geometry" />
        </mxCell>
        <mxCell id="-33F_JC6JZHggcXCFQ7N-59" value="USER" style="text;html=1;align=center;verticalAlign=middle;whiteSpace=wrap;rounded=1;fontFamily=Comic Sans MS;sketch=1;curveFitting=1;jiggle=2;" parent="-33F_JC6JZHggcXCFQ7N-57" vertex="1">
          <mxGeometry y="80" width="60" height="30" as="geometry" />
        </mxCell>
        <mxCell id="7" value="Text" style="text;strokeColor=none;align=center;fillColor=none;html=1;verticalAlign=middle;whiteSpace=wrap;rounded=0;" vertex="1" parent="1">
          <mxGeometry x="1320" y="710" width="60" height="30" as="geometry" />
        </mxCell>
      </root>
    </mxGraphModel>
  </diagram>
</mxfile>
